# xmcd
#
# Track frame offsets: 
#        150
#        21824
#        34423
#        57222
#        86921
#        109270
#        124194
#        134468
#        154267
#        173841
#        193865
#        216845
#        220199
#
# Disc length: 3134 seconds
#
# Revision: 2
# Processed by: cddbd v1.5.2PL0 Copyright (c) Steve Scherf et al.
# Submitted via: ExactAudioCopy v1.0b3
#
DISCID=c40c3c0d
DTITLE=Sonny Moorman Group - Crossroads Motel
DYEAR=2005
DGENRE=Blues
TTITLE0=The Rainmaker
TTITLE1=Forget To Forget You
TTITLE2=Texas Blues Again
TTITLE3=Last Call
TTITLE4=Crossroads Motel
TTITLE5=Remembering Cal
TTITLE6=Blues After Dark
TTITLE7=Change My Mind
TTITLE8=Chance We Take For Love
TTITLE9=Souled Out
TTITLE10=House Of Thunder
TTITLE11=oops . . .
TTITLE12=Hideaway
EXTD=
EXTT0=
EXTT1=
EXTT2=
EXTT3=
EXTT4=
EXTT5=
EXTT6=
EXTT7=
EXTT8=
EXTT9=
EXTT10=
EXTT11=
EXTT12=
PLAYORDER=
